<?xml version="1.0" encoding="UTF-8"?>
<svg id="Icon_2" xmlns="http://www.w3.org/2000/svg" xmlns:xlink="http://www.w3.org/1999/xlink" viewBox="0 0 170 171.15">
  <defs>
    <style>
      .cls-1 {
        fill: url(#linear-gradient);
      }
    </style>
    <linearGradient id="linear-gradient" x1="0" y1="85.57" x2="170" y2="85.57" gradientUnits="userSpaceOnUse">
      <stop offset="0" stop-color="#8c6931"/>
      <stop offset=".24" stop-color="#c8a45d"/>
      <stop offset=".41" stop-color="#eac488"/>
      <stop offset=".6" stop-color="#c8a45d"/>
      <stop offset=".99" stop-color="#8c6931"/>
    </linearGradient>
  </defs>
  <path class="cls-1" d="M160.28,62.89c3.69-2.8,6.44-6.43,8.02-10.64l.16-.42-4.47,2.21c-1.9.7-3.91,1.29-5.93,1.73-.99.22-1.99.4-2.97.55-.84.13-1.68.22-2.5.29-.48.04-.95.08-1.42.1-1.77.09-3.46.04-5.05-.15,1.56-.1,3.11-.33,4.64-.67.47-.11.94-.23,1.41-.36.78-.22,1.55-.47,2.3-.75.96-.36,1.88-.75,2.76-1.2,5.89-2.95,10.06-7.75,11.87-13.77.4-1.32.78-2.73.83-4.17.05-1.19.09-2.41.05-3.62-.02-.69-.08-1.34-.16-1.98l-.09-.66-.25.62c-.49,1.18-.95,2.12-1.46,2.95-.57.92-1.23,1.67-2.06,2.52-.92.95-2.85,2.93-5.63,4.69-2.76,1.74-5.58,2.78-7.98,3.41-.61.15-1.18.29-1.73.39.52-.23,1.02-.5,1.5-.78.85-.48,1.66-1.03,2.48-1.59,4.56-3.14,8-7.33,9.95-12.13,2-4.93,2.27-10.5.76-15.67-.6-2.06-1.37-3.69-2.29-4.84l-.52-.66.21.81c.32,1.22.14,2.66-.05,3.91-.91,5.98-5.89,13.28-10.1,17.1l-3.68,2.77c.37-.52.74-1.06,1.08-1.59,4.24-5.7,5.92-11.82,4.99-18.17-.8-5.48-3.41-10.15-7.14-12.84l-.39-.28.11.47c.75,3.19.95,6.41.58,9.56-.86,7.29-4.56,12.3-7.53,16.32-.09.12-.36.46-.8.97-14.66-14.56-34.11-22.57-54.78-22.57S44.89,12.76,30.23,27.32c-.43-.5-.71-.85-.81-.98-2.97-4.02-6.67-9.03-7.52-16.31-.37-3.16-.18-6.37.59-9.56l.11-.47-.39.28c-3.74,2.68-6.34,7.36-7.14,12.84-.93,6.36.75,12.47,4.98,18.16.33.52.69,1.04,1.08,1.6l-3.67-2.76c-4.22-3.83-9.2-11.13-10.11-17.11-.19-1.26-.37-2.7-.06-3.91l.21-.82-.53.66c-.92,1.15-1.68,2.78-2.29,4.84-1.5,5.17-1.23,10.73.77,15.67,1.94,4.8,5.38,9,9.95,12.13.81.56,1.63,1.11,2.48,1.59.49.28.99.55,1.5.78-.55-.11-1.12-.24-1.73-.39-2.4-.62-5.23-1.67-7.98-3.41-2.76-1.74-4.62-3.65-5.64-4.69-.83-.86-1.5-1.61-2.05-2.52-.51-.83-.98-1.76-1.47-2.95l-.25-.61-.09.66c-.09.61-.14,1.26-.16,1.98-.04,1.21,0,2.44.05,3.62.05,1.42.43,2.85.83,4.17,1.81,6.02,5.98,10.83,11.88,13.77.88.44,1.8.84,2.76,1.2.75.28,1.52.53,2.3.75.47.13.93.25,1.4.36,1.53.34,3.08.57,4.64.67-1.59.19-3.28.23-5.05.15-.47-.02-.94-.05-1.42-.1-.83-.07-1.66-.17-2.5-.29-.99-.14-1.98-.33-2.97-.55-2.02-.44-4.02-1.03-5.92-1.73l-4.48-2.22.16.42c1.58,4.21,4.33,7.84,8.03,10.64-1.64,6.33-2.49,12.91-2.49,19.62,0,20.77,8.09,40.3,22.78,54.99,4.87,4.88,10.28,9.02,16.09,12.39,1.03,3.03,2.47,5.89,4.22,8.36,7.1,10.05,18.62,12.25,23.24,12.73.96.1,2.09.17,3.35.17,2.86,0,6.41-.36,10.29-1.58,6.26-1.97,12.88-6.05,17.68-11.85,1.76-2.12,3.27-4.47,4.44-7.03,1.04-2.29,1.8-4.74,2.21-7.34.65-4.18.33-8.49-.94-12.82l-.46-1.58.11,1.64c.25,3.65-.11,7.28-1.09,10.79-.62,2.24-1.47,4.39-2.56,6.43,1.9-5.07,4.12-14.26.96-24.77-3.73-12.38-12.75-19.22-17.37-22.01,2.87,1.12,5.58,2.58,8.09,4.37,2.8,1.99,5.31,4.35,7.26,6.8,6.97,8.78,7.4,18.75,7.62,24.1.14,3.27.34,7.95-1.24,13.39-.3,1.02-.65,2.07-1.09,3.14-.5,1.25-1.08,2.47-1.73,3.65-1.03,1.87-2.24,3.65-3.62,5.31l-.85,1.03,1.09-.77c.29-.2,3.55-2.54,6.89-6.81,10.16-3.85,19.46-9.84,27.37-17.75,14.69-14.68,22.78-34.21,22.78-54.99,0-6.71-.84-13.29-2.48-19.62ZM146.97,61.15c1.83-.08,3.67-.28,5.47-.59.48-.08.97-.17,1.45-.28.78-.15,1.55-.34,2.32-.54.84-.22,1.68-.47,2.51-.74-.72.61-1.47,1.17-2.26,1.68-.66.43-1.35.83-2.07,1.2-.45.23-.9.44-1.36.64-.02.01-.05.02-.08.04-.84.36-3.12,1.23-6.12,1.63-5.52.72-10.42-.59-13.62-1.86.46-.8.88-1.61,1.28-2.4,4.08,1,8.28,1.41,12.48,1.22ZM111.71,84.18c.13.98.35,1.95.67,2.89.91,2.7,2.45,4.69,3.74,5.99-1.56-.52-3.87-1.63-5.62-3.99-.73-.99-1.29-2.1-1.67-3.29,1-.52,1.94-1.04,2.88-1.6ZM101.33,77.74c-.35,0-.66-.01-.96-.03-2.4-.12-4.4-.82-5.81-2.03l.3-.38c1.64,1.05,3.78,1.47,6.38,1.26,3.81-.29,7.65-1.83,11.76-4.71,4.26-2.86,7.52-6.57,9.43-10.74.9-1.91,1.58-4.04,2.07-6.51l.11-.51c.14-.7.31-1.48.66-2.22.46-.97,1.37-1.58,2.21-2.06.51-.29,1.04-.58,1.58-.84l.03-.02c.7-.35,1.41-.69,2.14-1.03l.04-.02c1.31-.63,2.67-1.28,3.96-2l.27.41c-1.38,1.03-2.88,1.92-4.35,2.8-.51.3-1,.6-1.51.9-.47.29-.98.61-1.46.93-.6.41-1.27.87-1.55,1.56-.23.56-.32,1.18-.42,1.78l-.1.63c-.08.47-.19,1.12-.32,1.76-.61,3.02-1.74,5.86-3.36,8.45-2.14,3.42-5.22,6.37-9.15,8.76-2.76,1.77-7.07,3.87-11.94,3.87ZM115.94,81.44c.78-.55,1.5-1.09,2.21-1.65.84,1.82,1.93,3.51,3.23,5.01,1.73,1.99,3.86,3.67,6.2,4.91-2.03-.19-5.15-.92-7.98-3.35-1.54-1.32-2.81-3.02-3.66-4.91ZM122.54,76.01c.73-.69,1.46-1.42,2.17-2.17,1.37,2.23,3.11,4.15,5.19,5.72,2.86,2.15,5.78,3.19,8.02,3.68-1.98.16-4.62.03-7.46-1.06-4.2-1.6-6.74-4.5-7.92-6.18ZM128.25,69.75c.4-.51.81-1.06,1.23-1.62,2.71,1.71,5.62,3.09,8.63,4.09,2.52.84,5.12,1.42,7.75,1.74-2.02.78-4.31.97-6.82.57-3.31-.52-5.72-1.67-7.25-2.48-1.25-.66-2.44-1.44-3.55-2.3ZM151.52,48.27c.95-.32,1.9-.67,2.83-1.04,3.81-1.55,7.41-3.59,10.73-6.09-.82,1.3-1.75,2.51-2.77,3.61-1.89,2.02-4.14,3.72-6.7,5.07-.86.45-1.77.87-2.7,1.24-.76.3-1.53.57-2.32.82-.44.13-.88.26-1.32.38-4.6,1.23-9.03,1.38-12.01,1.27.35-.95.67-1.91.97-2.87,3.22-.11,6.43-.55,9.54-1.3.47-.11.94-.23,1.39-.36.23-.06.46-.13.69-.19.57-.17,1.14-.34,1.69-.53ZM160.3,26.58l1.28-2.28c-.8,2.81-1.67,4.98-2.75,6.93-1.81,3.23-4.76,6.25-8.63,8.85-.79.53-1.61,1.04-2.47,1.53-.73.42-1.47.81-2.24,1.19-.39.2-.78.38-1.17.57-1.54.71-3.13,1.35-4.73,1.9.17-.8.32-1.63.47-2.53,1.07-.55,1.96-1.02,2.78-1.46.39-.21.78-.43,1.16-.64.75-.42,1.49-.85,2.19-1.27.85-.52,1.68-1.03,2.46-1.55,5.2-3.46,8.94-7.07,11.65-11.23ZM140.8,32.49c.6-.66,1.23-1.38,1.87-2.15,3.11-3.78,6.45-8.89,7.98-14.69.01,5.7-2.13,11.23-6.41,16.49-.6.74-1.23,1.47-1.92,2.19-.56.6-1.16,1.2-1.79,1.81-.3.28-.61.57-.94.87-2.2,1.99-4.74,3.93-7.55,5.77-1.31.86-2.73,1.61-4.09,2.34-1.23.65-2.5,1.33-3.68,2.08-3.23,2.05-3.62,4.13-4.12,6.76-.16.86-.33,1.75-.6,2.76-.48,1.78-1.2,3.48-2.11,5.06-2.63,4.55-6.49,7.03-7.95,7.96l-.12.08c-2.58,1.65-5.24,3.36-8.32,3.52-2.36.12-5.11-.72-6.33-2.82.36.21.79.4,1.21.58l.15.07c.73.32,1.45.46,2.21.6l.28.06c1.86.38,3.6-.12,5.22-.66,5.65-1.89,12.71-8.81,13.81-15.71.18-1.13.23-2.03.28-2.82.14-2.31.21-3.36,3.31-5.59,1.64-1.17,3.46-2.21,5.23-3.22,1.93-1.1,3.94-2.24,5.77-3.6,2.05-1.52,4.04-3.19,5.9-4.98.3-.29.6-.58.89-.88.61-.61,1.21-1.24,1.79-1.88ZM85,10.13c19.93,0,38,8.1,51.11,21.17-.29.29-.58.58-.88.88-1.91,1.87-3.75,3.46-5.46,4.72-1.63,1.2-3.42,2.22-5.31,3.31l-.06.04c-1.49.85-3.03,1.73-4.51,2.71-.55.29-1.02.56-1.45.82-4.74,2.95-4.94,5.8-5.18,9.1-.14,1.92-.28,3.92-1.33,6.15-.65,1.11-1.46,2.21-2.4,3.25-1.01,1.12-2.15,2.15-3.31,2.98-2.33,1.69-6.27,2.99-9,2.08-1.46-.49-2.46-1.54-2.95-3.13-.41-1.3-.39-2.84.06-4.72l.04-.18c.96-4.06,1.72-7.29,1.42-11.48,3.44,1.2,7.63.14,10.07-2.57l1.12-1.24-1.36.97c-1.38.99-3.34,1.25-5.26.7-2.18-.64-3.53-1.95-5.09-3.47.89.18,1.74.2,2.54.06,2.12-.37,4.11-2.29,4.42-4.45.1-.7.04-1.4-.02-2.1-.44,2.41-4.41,3.01-6.38,2.76-1-.12-1.98-.52-2.71-1.23.87-.07,1.58-.69,2.19-1.31.68-.69,1.33-1.41,1.8-2.26.47-.84.75-1.82.64-2.78-.24,1.06-1.28,1.73-2.26,2.21-.66.32-1.33.61-2.01.87,1.19-1,2.07-2.49,2.45-3.99.76-3.06.59-7.43-1.53-10.27l-.57-.76.25.92c1.34,4.9-1.35,10.23-5.91,11.98.15-.15.31-.29.47-.44.25-.22.5-.44.72-.7,1.83-2.21,2.9-5.14,2.92-8.03.03-4.06-2.76-9.64-7.28-10.18,1.46.18,2.38,2.4,2.82,3.52.72,1.84,1.1,3.61.83,5.59-.46,3.44-2.61,6.75-5.74,8.85-1.32.89-2.99,1.62-4.74,2.4-1.31.58-2.66,1.17-3.87,1.84-1.71.71-3.08,1.7-4.07,2.94-.31.39-.57.97-.78,1.44-.11.25-.23.51-.28.57-.08.06-.55.22-.86.32-.38.12-.73.24-.92.34-3.8,1.93-5.76,5.23-5.53,9.27v.09s.09.05.09.05c.19.11.5-.03,1.95-.91.46-.28.9-.54,1.08-.61,3.24-1.29,10.5-1.23,12.19,2.75,1.72,4.06-1.67,7.95-4.39,11.06-.4.46-.79.91-1.15,1.34-1.34,1.6-2.27,2.86-3.03,4.08-1.65-.38-3.42-1.18-4.76-2.16-1.16-.84-2.3-1.87-3.31-2.98-.94-1.05-1.75-2.15-2.39-3.24-1.06-2.25-1.21-4.23-1.34-6.16-.24-3.3-.44-6.15-5.17-9.1-.41-.25-.87-.52-1.44-.81-1.52-1.01-3.12-1.92-4.53-2.72l-.11-.06c-1.88-1.08-3.65-2.09-5.27-3.28-1.72-1.27-3.55-2.86-5.46-4.72-.29-.29-.59-.58-.88-.87,13.1-13.08,31.18-21.18,51.11-21.18ZM87.59,83.53c-1-1.41-2.19-3.7-2.21-6.68-.01-2.26.71-4.53,2.22-6.93.46-.73.97-1.42,1.46-2.1.92-1.26,1.81-2.45,2.4-3.9-.31,3.14-1.83,6.07-3.33,8.58-2.13,3.56-1.27,8.39-.54,11.03ZM88.09,44.98c2.72,3.95,3.6,8.48,2.47,12.75-.8,3.02-2.62,5.45-4.39,7.8-1.47,1.96-2.99,3.98-3.94,6.34-.7,1.74-1.07,3.5-1.11,5.4-.05,2.23.38,4.45,1.28,6.6-1.54-1.54-2.73-3.64-3.37-5.95-.35-1.27-.51-2.53-.47-3.75.03-1.12.14-2.54.72-3.6l.04-.07c.44-.79.89-1.61,1.46-2.33l.42-.52-.63.24c-1.68.65-3.09,1.91-4.42,3.96-1.84,2.86-2.54,5.84-2,8.65-.51-1.13-.84-2.32-.98-3.54-.13-1.04-.46-3.79,1.07-6.51.43-.77.98-1.49,1.64-2.12l.98-.95-1.2.67c-1.42.8-3.36,2.27-4.51,4.78-1.52,3.31-.77,6.6.08,8.71-.7-1.25-1.3-2.8-1.5-4.65-.07-.67-.28-2.7.51-4.96,0-.02.71-1.97,3.11-5.13.46-.6.97-1.24.98-1.25.08-.09.16-.19.24-.29.41-.5.83-.99,1.25-1.48,1.04-1.22,2.11-2.48,3.03-3.81,1.86-2.67,2.8-5.14,2.78-7.35.42,1.16.5,2.58.24,4.32v.15s.2.09.2.09l.08-.04c.2-.1.97-1.46,1.24-2.76.27-1.29.03-2.34-.08-2.84-.02-.1-.43-2.53-2.63-4.46-3.89-3.4-9.03-3.95-15.28-1.62.95-1.53,2.7-3.01,4.9-2.65.24.04.43.14.63.24.29.15.62.32,1.1.33.43,0,.88-.14,1.36-.29.43-.13.88-.27,1.28-.29.39-.02.69.03.96.07.54.09,1.01.16,1.83-.39.26-.17.48-.42.69-.66.19-.2.36-.4.55-.55.94-.72,1.98-1.14,3.19-1.28l.22-.03-.08-.21c-.1-.3-.6-.43-1.14-.56l-.11-.03c-1.74-.42-2.89-.12-4.55.42-.51.17-1.01.41-1.49.64-.81.39-1.59.76-2.38.81.29-.93.72-1.76,1.3-2.47,2.91-3.6,7.84-2.83,11.93-3.06,1.54-.09,3.15-.27,4.41-1.16-.27.65-.55,1.3-1,1.83-1.01,1.2-2.57.85-3.97,1.11-.96.18-1.92.45-2.85.8l-.46.18.47.16c.38.13.78.28,1.17.43,2.01.81,4.51,1.82,6.66,4.13,1.9,2.04,3.12,4.59,3.43,7.18.05.4.08.8.08,1.21-.29-.96-.69-1.86-1.18-2.71-.47-.82-1.02-1.7-2.03-2.61-.59-.53-1.26-.98-2.01-1.35l-.61-.3.39.56ZM86.64,97c-2.22-1.15-5.95-3.67-8.14-8.44-1.23-2.67-1.6-5.24-1.6-7.37,0-1.12.1-2.12.24-2.95.43,2.85,1.22,5.63,2.36,8.27,1.69,3.92,4.09,7.44,7.13,10.49ZM19.35,15.65c1.53,5.81,4.87,10.91,7.98,14.69.64.78,1.26,1.5,1.87,2.15.58.64,1.19,1.27,1.8,1.88.29.3.59.59.89.88,1.86,1.78,3.84,3.46,5.9,4.98,1.84,1.36,3.84,2.5,5.77,3.6,1.76,1,3.59,2.04,5.22,3.22,3.1,2.23,3.17,3.28,3.31,5.59.05.79.11,1.68.29,2.82,1.1,6.9,8.15,13.82,13.8,15.71l.18.06c.11.04.23.07.34.11-.15.49-.29.99-.4,1.5-2.03-.66-3.9-1.86-5.71-3.02l-.1-.06c-2.47-1.59-5.61-3.93-7.94-7.96-.91-1.58-1.62-3.28-2.11-5.06-.28-1-.44-1.89-.6-2.76-.49-2.64-.88-4.72-4.12-6.77-1.18-.75-2.45-1.43-3.69-2.09-1.36-.72-2.77-1.47-4.08-2.33-2.81-1.84-5.35-3.78-7.55-5.77-.32-.29-.63-.58-.94-.87-.64-.61-1.24-1.21-1.8-1.81-.68-.72-1.32-1.46-1.92-2.19-4.27-5.26-6.42-10.8-6.4-16.49ZM40.1,79.56c2.08-1.57,3.83-3.5,5.19-5.72.71.75,1.44,1.48,2.17,2.17-1.19,1.68-3.73,4.58-7.92,6.18-2.85,1.08-5.48,1.21-7.46,1.06,2.24-.5,5.16-1.53,8.02-3.68ZM38.21,72.04c-1.53.81-3.94,1.96-7.25,2.48-.85.14-1.67.2-2.46.2-1.55,0-3.01-.25-4.35-.77,2.62-.32,5.23-.9,7.75-1.74,3.02-1,5.92-2.38,8.63-4.09.41.57.83,1.11,1.23,1.62-1.12.87-2.31,1.64-3.55,2.3ZM48.61,84.8c1.3-1.5,2.39-3.19,3.23-5.01.72.56,1.46,1.12,2.21,1.65-.87,1.92-2.1,3.57-3.66,4.91-1.42,1.22-2.91,2.01-4.3,2.52-1.39.51-2.68.74-3.69.84,2.35-1.23,4.48-2.92,6.2-4.91ZM57.62,87.06c.32-.93.54-1.9.67-2.89.94.56,1.88,1.08,2.88,1.6-.37,1.19-.93,2.29-1.66,3.29-1.75,2.35-4.07,3.47-5.63,3.99,1.71-1.72,3-3.77,3.74-5.99ZM56.72,73.85c-3.92-2.39-7-5.33-9.13-8.75-1.62-2.59-2.76-5.43-3.37-8.45-.13-.64-.24-1.28-.32-1.77-.04-.19-.06-.38-.1-.58v-.11c-.11-.6-.2-1.18-.43-1.71-.28-.69-.96-1.15-1.55-1.56-.52-.36-1.06-.68-1.46-.93-.5-.3-.99-.6-1.5-.9-1.46-.86-2.96-1.75-4.36-2.8l.27-.41c1.33.74,2.75,1.42,4.01,2.02.64.3,1.4.66,2.16,1.04.56.29,1.09.57,1.59.85.84.47,1.75,1.09,2.21,2.06.35.72.51,1.47.66,2.19.03.14.06.28.1.43l.02.09c.49,2.46,1.17,4.59,2.07,6.51v.03c1.92,4.16,5.17,7.86,9.42,10.71,2.8,1.96,5.44,3.28,8.08,4.04l.17.05v.18c-.01.33-.01.67,0,1.01v.29s-.28-.06-.28-.06h0c-2.74-.57-5.51-1.74-8.24-3.49ZM11.18,31.22c-1.08-1.94-1.95-4.11-2.76-6.93l1.28,2.28c2.71,4.16,6.45,7.77,11.65,11.23.79.52,1.6,1.04,2.46,1.55.71.42,1.44.85,2.19,1.27.38.22.77.43,1.16.64.84.46,1.72.92,2.78,1.46.13.82.29,1.67.47,2.53-1.6-.55-3.19-1.19-4.73-1.9-.39-.18-.78-.37-1.16-.56-.77-.38-1.52-.79-2.24-1.2-.86-.49-1.68-1-2.47-1.53-3.86-2.6-6.82-5.63-8.62-8.85ZM20.74,52.25c-.44-.12-.88-.24-1.31-.38-.79-.24-1.57-.52-2.33-.82-.93-.37-1.83-.79-2.7-1.24-2.57-1.35-4.82-3.04-6.7-5.07-1.02-1.09-1.95-2.3-2.77-3.61,3.32,2.5,6.92,4.54,10.73,6.09.93.38,1.87.72,2.82,1.04.6.2,1.15.37,1.69.53.23.07.46.13.69.19.46.13.93.25,1.39.36,3.11.76,6.31,1.2,9.54,1.3.3.97.62,1.93.97,2.87-2.98.1-7.41-.05-12.01-1.27ZM13.79,59.75c.77.2,1.54.38,2.32.54.48.1.97.19,1.45.28,1.8.31,3.64.51,5.47.59,4.2.19,8.4-.22,12.48-1.22.4.79.83,1.6,1.28,2.4-3.2,1.27-8.1,2.59-13.62,1.86-3-.39-5.28-1.27-6.13-1.63-.02-.01-.05-.02-.08-.04-.46-.2-.91-.41-1.35-.64-.71-.36-1.41-.76-2.07-1.2-.78-.51-1.54-1.07-2.26-1.68.83.27,1.67.52,2.51.74ZM90.52,106.15c2.87,2.5,4.62,4.98,5.24,5.94,3.89,5.96,4.38,12.11,4.41,14.48.03,2.41-.33,8.7-4.32,15.03-1.58,2.5-4.86,7.71-11.06,10.07-8.72,3.32-20.1-.37-25.91-8.4-2.36-3.27-3.78-7.28-4.1-11.61l-.08-1.07-.27,1.03c-.45,1.69-2.2,9.61,1.72,17.27.57,1.12,1.26,2.23,2.09,3.31,1.67,2.18,3.66,3.91,5.82,5.23,5.85,3.6,12.97,4.25,18.58,2.98.22-.05.44-.1.66-.16,3.89-1,7.42-2.97,10.54-5.9,1.54-1.44,2.99-3.12,4.33-5.03,2.05-2.91,3.56-6.18,4.49-9.7.8-3.03.82-6.2.84-9.28,0-.39,0-.79.01-1.18.05.13.11.26.17.39.15.33.28.65.35.89.72,3.13.81,6.28.27,9.37-.5,2.83-1.7,5.85-3.57,8.95l-.26.43c-.83,1.38-1.8,2.99-2.99,4.63-1.57,2.16-3.51,4.38-6.03,6.2-1.49,1.07-3.17,2.01-5.08,2.71-13.12,4.79-24.95-3.39-26.25-4.34l-.13-.1c-1.09-.79-2.75-2-4.45-3.75-1.78-1.84-3.59-4.28-4.83-7.49-.13-.33-.24-.65-.36-.98-1.39-4.08-1.63-8.05-.7-11.81,2.28-9.24,10.74-13.5,12.41-14.26l1.16-.53-1.26.19c-3.76.55-9.07,2.12-12.92,6.44-3.88,4.35-5.15,10.34-4.57,16.39-19.22-13.03-31.87-35.04-31.87-59.96,0-5.75.67-11.34,1.95-16.7.44.21.89.41,1.35.6,4.74,1.93,10,2.52,14.9,1.69-.08.03-.14.06-.2.08-4.16,1.86-8.76,2.94-13.29,3.14h-.19c-.68.04-1.45.08-2.06-.17l-.11-.06-.1.1c-.05.05-.09.14-.03.31.16.41,1.04,1.43,1.05,1.44,4.94,5.66,12.59,7.15,20.67,4.1-3.11,2.32-7.53,4.79-12.38,4.98h-.38s.25.3.25.3c2.39,2.65,5.84,4.2,9.71,4.35,4.04.17,8.16-1.18,11.28-3.65-1.22,1.71-2.66,3.24-4.27,4.56-1.59,1.31-3.35,2.42-5.24,3.29l-.36.17.37.16c1.9.82,4.93,1.7,8.59,1.19,4.3-.59,7.31-2.8,8.89-4.28-.17,1.07-.59,2.48-1.61,3.85-1.53,2.05-3.55,2.86-4.61,3.17l-.6.17.59.18c.8.24,1.63.42,2.47.53,5.48.76,9.82-1.45,11.25-2.17,3.8-1.93,6.08-4.56,6.89-5.6.1-.14.21-.28.31-.41.8,2.38,3.45,8.95,9.58,13.99,4.78,4.51,8.43,10.07,10.55,16.08l.22.62c1.39,3.89,3.71,10.41,1.39,16.96-3.92,11.03-17.61,13.93-19.16,14.23l-.98.19.99.17c4.42.74,8.8.31,12.69-1.26.07-.03.17-.06.27-.1.59-.22,1.69-.64,2.7-1.37l.21-.15c2.09-1.5,8.43-6.08,9.58-14.2,1.27-9-2.93-16.86-7.94-24.02l1.39,1.24c1.46,1.42,2.75,2.99,3.84,4.69,2.66,4.15,4.14,9.12,4.28,14.35h.36c.21-4.28-.24-12.6-5.64-20.22-1.47-2.07-3.1-3.87-4.82-5.3,1.06.67,2.25,1.5,3.33,2.45ZM87.78,93.14c-2.39-2.91-2.92-6.13-2.99-8.15.81,2.72,2.08,5.24,3.78,7.51,1.27,1.69,2.76,3.19,4.44,4.49-1.62-.66-3.57-1.83-5.23-3.85ZM97.23,93.02c-.66-.48-1.34-.97-1.95-1.5-2.1-1.83-3.54-4.33-3.95-6.84-.25-1.52-.37-2.81-.13-4.19.09-.55.23-1.11.42-1.7t0,0c0,1.29.14,3.58,1.05,5.66.82,1.88,2.44,3.65,5.66,7.18.2.22.73.8,1.24,1.68.35.6.64,1.24.86,1.91.08.24.12.53.16.81-.87-1.22-2.14-2.12-3.36-3.01ZM117.41,147.22c1.69-3.92,2.8-8.56,2.59-13.87-.46-11.71-7.01-19.64-11.37-23.66,1.01.79,1.98,1.64,2.89,2.54,7.74,7.62,10.25,17.12,10.99,23.76l.02.14.2.08.08-.07s.03-.08.05-.19v-.02c.14-1.13.07-6.65-1.05-11.71-1.44-6.51-2.8-12.66-7.58-18.34-1.18-1.4-2.5-2.67-3.9-4.02-1.86-1.79-3.97-3.81-6.18-6.59-1.48-1.85-2.61-3.93-3.35-6.2-.32-.98-.46-1.89-.57-2.95-.04-.33-.03-.76-.03-1.21,0-.25,0-.5,0-.75.64,1.46,1.45,2.82,2.42,4.07,1,1.3,3.22,3.74,6.88,5.61,1.43.73,5.77,2.93,11.25,2.17.83-.11,1.66-.29,2.46-.53l.59-.18-.59-.17c-1.07-.31-3.1-1.12-4.62-3.17-1.02-1.37-1.44-2.78-1.6-3.85,1.58,1.48,4.58,3.69,8.88,4.28,3.66.51,6.7-.37,8.6-1.19l.37-.16-.37-.17c-1.88-.86-3.64-1.97-5.24-3.29-1.62-1.33-3.05-2.87-4.27-4.57,3.12,2.47,7.24,3.81,11.28,3.65,3.87-.15,7.31-1.7,9.7-4.35l.26-.28h-.38c-4.85-.2-9.26-2.67-12.37-5,8.07,3.05,15.73,1.56,20.66-4.1,0-.01.89-1.03,1.05-1.43.08-.18.02-.27-.03-.32l-.11-.08-.11.04c-.6.24-1.37.2-2.05.17h-.19c-4.46-.2-9.18-1.32-13.29-3.15-.05-.03-.12-.05-.19-.08,4.89.83,10.15.24,14.89-1.69.46-.19.91-.39,1.36-.6,1.27,5.36,1.94,10.95,1.94,16.7,0,28.26-16.29,52.8-39.97,64.71Z"/>
</svg>